<svg width="4338" height="1909" xmlns="http://www.w3.org/2000/svg" xmlns:xlink="http://www.w3.org/1999/xlink" overflow="hidden"><defs><clipPath id="clip0"><rect x="31" y="337" width="4338" height="1909"/></clipPath></defs><g clip-path="url(#clip0)" transform="translate(-31 -337)"><path d="M30.9999 1635.17C30.9999 1567.7 85.6973 1513 153.17 1513L4246.83 1513C4314.3 1513 4369 1567.7 4369 1635.17L4369 2123.83C4369 2191.3 4314.3 2246 4246.83 2246L153.17 2246C85.6973 2246 30.9999 2191.3 30.9999 2123.83Z" fill="#2B2152" fill-rule="evenodd"/><text fill="#FFFFFF" font-family="Libre Franklin,Libre Franklin_MSFontService,sans-serif" font-weight="700" font-size="83" transform="matrix(1 0 0 1 174.568 1906)">Eclipse MOSAIC Simulation Runtime Infrastructure</text><path d="M273 1577 325 1577 325 1345 429 1345 429 1577 481 1577 377 1681Z" fill="#621257" fill-rule="evenodd"/><path d="M1005 1577 1057 1577 1057 1345 1161 1345 1161 1577 1213 1577 1109 1681Z" fill="#0199DD" fill-rule="evenodd"/><path d="M1774 1575 1826 1575 1826 1343 1930 1343 1930 1575 1982 1575 1878 1679Z" fill="#7BBA21" fill-rule="evenodd"/><path d="M3284 1575 3336 1575 3336 1343 3440 1343 3440 1575 3492 1575 3388 1679Z" fill="#E27F27" fill-rule="evenodd"/><path d="M2538 1579 2590 1579 2590 1347 2694 1347 2694 1579 2746 1579 2642 1683Z" fill="#F0C510" fill-rule="evenodd"/><path d="M226 2011C226 1995.54 238.536 1983 254 1983L1276 1983C1291.46 1983 1304 1995.54 1304 2011L1304 2123C1304 2138.46 1291.46 2151 1276 2151L254 2151C238.536 2151 226 2138.46 226 2123Z" fill="#FFFFFF" fill-rule="evenodd"/><text font-family="Libre Franklin Light,Libre Franklin Light_MSFontService,sans-serif" font-weight="300" font-size="73" transform="matrix(1 0 0 1 345.328 2093)">Federation Management</text><path d="M1662 2011C1662 1995.54 1674.54 1983 1690 1983L2712 1983C2727.46 1983 2740 1995.54 2740 2011L2740 2123C2740 2138.46 2727.46 2151 2712 2151L1690 2151C1674.54 2151 1662 2138.46 1662 2123Z" fill="#FFFFFF" fill-rule="evenodd"/><text font-family="Libre Franklin Light,Libre Franklin Light_MSFontService,sans-serif" font-weight="300" font-size="73" transform="matrix(1 0 0 1 1880.82 2093)">Time Management</text><path d="M3098 2011C3098 1995.54 3110.54 1983 3126 1983L4149 1983C4164.46 1983 4177 1995.54 4177 2011L4177 2123C4177 2138.46 4164.46 2151 4149 2151L3126 2151C3110.54 2151 3098 2138.46 3098 2123Z" fill="#FFFFFF" fill-rule="evenodd"/><text font-family="Libre Franklin Light,Libre Franklin Light_MSFontService,sans-serif" font-weight="300" font-size="73" transform="matrix(1 0 0 1 3217.23 2093)">Interaction Management</text><path d="M780 398.239C780 364.418 807.418 337 841.239 337L1412.76 337C1446.58 337 1474 364.418 1474 398.239L1474 1327.76C1474 1361.58 1446.58 1389 1412.76 1389L841.239 1389C807.418 1389 780 1361.58 780 1327.76Z" fill="#0199DD" fill-rule="evenodd"/><text fill="#FFFFFF" font-family="Libre Franklin,Libre Franklin_MSFontService,sans-serif" font-weight="700" font-size="73" transform="matrix(1 0 0 1 837.145 463)">Communication</text><path d="M831 1223.84C831 1210.12 842.121 1199 855.84 1199L1409.16 1199C1422.88 1199 1434 1210.12 1434 1223.84L1434 1312.16C1434 1325.88 1422.88 1337 1409.16 1337L855.84 1337C842.121 1337 831 1325.88 831 1312.16Z" fill="#FFFFFF" fill-rule="evenodd"/><text font-family="Libre Franklin Light,Libre Franklin Light_MSFontService,sans-serif" font-weight="700" font-size="46" transform="matrix(1 0 0 1 995.416 1285)">MOSAIC Cell</text><path d="M831 1059.84C831 1046.12 842.121 1035 855.84 1035L1409.16 1035C1422.88 1035 1434 1046.12 1434 1059.84L1434 1148.16C1434 1161.88 1422.88 1173 1409.16 1173L855.84 1173C842.121 1173 831 1161.88 831 1148.16Z" fill="#FFFFFF" fill-rule="evenodd"/><text font-family="Libre Franklin Light,Libre Franklin Light_MSFontService,sans-serif" font-weight="700" font-size="46" transform="matrix(1 0 0 1 988.827 1121)">MOSAIC SNS</text><path d="M831 895.84C831 882.121 842.121 871 855.84 871L1409.16 871C1422.88 871 1434 882.121 1434 895.84L1434 984.16C1434 997.879 1422.88 1009 1409.16 1009L855.84 1009C842.121 1009 831 997.879 831 984.16Z" fill="#FFFFFF" fill-rule="evenodd"/><text font-family="Libre Franklin Light,Libre Franklin Light_MSFontService,sans-serif" font-weight="700" font-size="46" transform="matrix(1 0 0 1 1083.36 957)">ns<tspan font-size="46" x="50.4166" y="0">-</tspan><tspan font-size="46" x="68.177" y="0">3</tspan></text><path d="M831 731.84C831 718.121 842.121 707 855.84 707L1409.16 707C1422.88 707 1434 718.121 1434 731.84L1434 820.16C1434 833.879 1422.88 845 1409.16 845L855.84 845C842.121 845 831 833.879 831 820.16Z" fill="#FFFFFF" fill-rule="evenodd"/><text font-family="Libre Franklin Light,Libre Franklin Light_MSFontService,sans-serif" font-weight="700" font-size="46" transform="matrix(1 0 0 1 1023.49 793)">OMNeT<tspan font-size="46" x="166.719" y="0">++</tspan></text><path d="M1532 382.489C1532 357.366 1552.37 337 1577.49 337L2177.51 337C2202.63 337 2223 357.366 2223 382.489L2223 1343.51C2223 1368.63 2202.63 1389 2177.51 1389L1577.49 1389C1552.37 1389 1532 1368.63 1532 1343.51Z" fill="#7BBA21" fill-rule="evenodd"/><text fill="#FFFFFF" font-family="Libre Franklin,Libre Franklin_MSFontService,sans-serif" font-weight="700" font-size="73" transform="matrix(1 0 0 1 1584.62 458)">Traffic &amp; <tspan font-size="73" x="0" y="91">Vehicles</tspan></text><path d="M1586 895.02C1586 881.202 1597.2 870 1611.02 870L2163.98 870C2177.8 870 2189 881.202 2189 895.02L2189 983.98C2189 997.798 2177.8 1009 2163.98 1009L1611.02 1009C1597.2 1009 1586 997.798 1586 983.98Z" fill="#FFFFFF" fill-rule="evenodd"/><text font-family="Libre Franklin Light,Libre Franklin Light_MSFontService,sans-serif" font-weight="700" font-size="46" transform="matrix(1 0 0 1 1736.99 956)">Eclipse SUMO</text><path d="M1586 1059.84C1586 1046.12 1597.12 1035 1610.84 1035L2164.16 1035C2177.88 1035 2189 1046.12 2189 1059.84L2189 1148.16C2189 1161.88 2177.88 1173 2164.16 1173L1610.84 1173C1597.12 1173 1586 1161.88 1586 1148.16Z" fill="#FFFFFF" fill-rule="evenodd" fill-opacity="0.698039"/><text font-family="Libre Franklin Light,Libre Franklin Light_MSFontService,sans-serif" font-weight="700" font-size="46" transform="matrix(1 0 0 1 1754.46 1121)">PHABMACS</text><path d="M1586 1223.84C1586 1210.12 1597.12 1199 1610.84 1199L2164.16 1199C2177.88 1199 2189 1210.12 2189 1223.84L2189 1312.16C2189 1325.88 2177.88 1337 2164.16 1337L1610.84 1337C1597.12 1337 1586 1325.88 1586 1312.16Z" fill="#FFFFFF" fill-rule="evenodd" fill-opacity="0.698039"/><text font-family="Libre Franklin Light,Libre Franklin Light_MSFontService,sans-serif" font-weight="700" font-size="46" transform="matrix(1 0 0 1 1808.89 1285)">CARLA</text><path d="M2281 393.367C2281 364.998 2304 342 2332.37 342L2921.63 342C2950 342 2973 364.998 2973 393.367L2973 1342.63C2973 1371 2950 1394 2921.63 1394L2332.37 1394C2304 1394 2281 1371 2281 1342.63Z" fill="#F0C510" fill-rule="evenodd"/><text fill="#FFFFFF" font-family="Libre Franklin,Libre Franklin_MSFontService,sans-serif" font-weight="700" font-size="73" transform="matrix(1 0 0 1 2335.46 465)">Other Domains</text><path d="M2341 1228.84C2341 1215.12 2352.12 1204 2365.84 1204L2919.16 1204C2932.88 1204 2944 1215.12 2944 1228.84L2944 1317.16C2944 1330.88 2932.88 1342 2919.16 1342L2365.84 1342C2352.12 1342 2341 1330.88 2341 1317.16Z" fill="#FFFFFF" fill-rule="evenodd" fill-opacity="0.698039"/><text font-family="Libre Franklin Light,Libre Franklin Light_MSFontService,sans-serif" font-weight="700" font-size="46" transform="matrix(1 0 0 1 2447.91 1290)">Battery / Charging</text><path d="M2341 1064.84C2341 1051.12 2352.12 1040 2365.84 1040L2919.16 1040C2932.88 1040 2944 1051.12 2944 1064.84L2944 1153.16C2944 1166.88 2932.88 1178 2919.16 1178L2365.84 1178C2352.12 1178 2341 1166.88 2341 1153.16Z" fill="#FFFFFF" fill-rule="evenodd" fill-opacity="0.698039"/><text font-family="Libre Franklin Light,Libre Franklin Light_MSFontService,sans-serif" font-weight="700" font-size="46" transform="matrix(1 0 0 1 2438.75 1126)">Traffic Signs (VMS)</text><path d="M2341 900.84C2341 887.121 2352.12 876 2365.84 876L2919.16 876C2932.88 876 2944 887.121 2944 900.84L2944 989.159C2944 1002.88 2932.88 1014 2919.16 1014L2365.84 1014C2352.12 1014 2341 1002.88 2341 989.159Z" fill="#FFFFFF" fill-rule="evenodd"/><text font-family="Libre Franklin Light,Libre Franklin Light_MSFontService,sans-serif" font-weight="700" font-size="46" transform="matrix(1 0 0 1 2524.11 962)">Perception</text><path d="M2341 736.84C2341 723.121 2352.12 712 2365.84 712L2919.16 712C2932.88 712 2944 723.121 2944 736.84L2944 825.159C2944 838.878 2932.88 849.999 2919.16 849.999L2365.84 849.999C2352.12 849.999 2341 838.878 2341 825.159Z" fill="#FFFFFF" fill-rule="evenodd"/><text font-family="Libre Franklin Light,Libre Franklin Light_MSFontService,sans-serif" font-weight="700" font-size="46" transform="matrix(1 0 0 1 2504.92 798)">Environment</text><path d="M2341 570.84C2341 557.121 2352.12 546 2365.84 546L2919.16 546C2932.88 546 2944 557.121 2944 570.84L2944 659.159C2944 672.878 2932.88 683.999 2919.16 683.999L2365.84 683.999C2352.12 683.999 2341 672.878 2341 659.159Z" fill="#FFFFFF" fill-rule="evenodd" fill-opacity="0.698039"/><text font-family="Libre Franklin Light,Libre Franklin Light_MSFontService,sans-serif" font-weight="700" font-size="46" transform="matrix(1 0 0 1 2559.92 632)">Parking</text><path d="M3031 399.908C3031 365.165 3059.16 337 3093.91 337L3659.09 337C3693.83 337 3722 365.165 3722 399.908L3722 1326.09C3722 1360.84 3693.83 1389 3659.09 1389L3093.91 1389C3059.16 1389 3031 1360.84 3031 1326.09Z" fill="#E27F27" fill-rule="evenodd"/><text fill="#FFFFFF" font-family="Libre Franklin,Libre Franklin_MSFontService,sans-serif" font-weight="700" font-size="73" transform="matrix(1 0 0 1 3088.01 463)">Evaluation <tspan font-size="73" x="0" y="91">Tools</tspan></text><path d="M3087 1064.84C3087 1051.12 3098.12 1040 3111.84 1040L3665.16 1040C3678.88 1040 3690 1051.12 3690 1064.84L3690 1153.16C3690 1166.88 3678.88 1178 3665.16 1178L3111.84 1178C3098.12 1178 3087 1166.88 3087 1153.16Z" fill="#FFFFFF" fill-rule="evenodd"/><text font-family="Libre Franklin Light,Libre Franklin Light_MSFontService,sans-serif" font-weight="700" font-size="46" transform="matrix(1 0 0 1 3270.88 1126)">File Output</text><path d="M3087 1228.84C3087 1215.12 3098.12 1204 3111.84 1204L3665.16 1204C3678.88 1204 3690 1215.12 3690 1228.84L3690 1317.16C3690 1330.88 3678.88 1342 3665.16 1342L3111.84 1342C3098.12 1342 3087 1330.88 3087 1317.16Z" fill="#FFFFFF" fill-rule="evenodd" fill-opacity="0.698039"/><text font-family="Libre Franklin Light,Libre Franklin Light_MSFontService,sans-serif" font-weight="700" font-size="46" transform="matrix(1 0 0 1 3209 1290)">Statistics Output</text><path d="M3086 764.2C3086 735.371 3109.37 712 3138.2 712L3323.8 712C3352.63 712 3376 735.371 3376 764.2L3376 958.8C3376 987.629 3352.63 1011 3323.8 1011L3138.2 1011C3109.37 1011 3086 987.629 3086 958.8Z" fill="#FFFFFF" fill-rule="evenodd"/><text font-family="Libre Franklin Light,Libre Franklin Light_MSFontService,sans-serif" font-weight="700" font-size="46" transform="matrix(1 0 0 1 3201.34 850)">2D <tspan font-size="46" x="-72.7605" y="55">Visualizer</tspan></text><path d="M3400 764.2C3400 735.371 3423.37 712 3452.2 712L3637.8 712C3666.63 712 3690 735.371 3690 764.2L3690 958.8C3690 987.629 3666.63 1011 3637.8 1011L3452.2 1011C3423.37 1011 3400 987.629 3400 958.8Z" fill="#FFFFFF" fill-rule="evenodd" fill-opacity="0.698039"/><text font-family="Libre Franklin Light,Libre Franklin Light_MSFontService,sans-serif" font-weight="700" font-size="46" transform="matrix(1 0 0 1 3514.13 850)">3D <tspan font-size="46" x="-71.6148" y="55">Visualizer</tspan></text><path d="M30.9999 409.59C30.9999 369.499 63.4994 337 103.59 337L649.41 337C689.5 337 722 369.499 722 409.59L722 1316.41C722 1356.5 689.5 1389 649.41 1389L103.59 1389C63.4994 1389 30.9999 1356.5 30.9999 1316.41Z" fill="#621257" fill-rule="evenodd"/><text fill="#FFFFFF" font-family="Libre Franklin,Libre Franklin_MSFontService,sans-serif" font-weight="700" font-size="73" transform="matrix(1 0 0 1 91.331 466)">Applications</text><path d="M76 1165.62C76 1144.84 92.8431 1128 113.62 1128L641.38 1128C662.157 1128 679 1144.84 679 1165.62L679 1299.38C679 1320.16 662.157 1337 641.38 1337L113.62 1337C92.8431 1337 76 1320.16 76 1299.38Z" fill="#FFFFFF" fill-rule="evenodd"/><text font-family="Libre Franklin Light,Libre Franklin Light_MSFontService,sans-serif" font-weight="700" font-size="46" transform="matrix(1 0 0 1 286.276 1222)">MOSAIC <tspan font-size="46" x="-136.927" y="55">Application Simulator</tspan></text><path d="M76 925.62C76 904.843 92.843 888 113.62 888L268.38 888C289.157 888 306 904.843 306 925.62L306 1059.38C306 1080.16 289.157 1097 268.38 1097L113.62 1097C92.843 1097 76 1080.16 76 1059.38Z" fill="#9E9EAD" fill-rule="evenodd"/><text fill="#FFFFFF" font-family="Libre Franklin Light,Libre Franklin Light_MSFontService,sans-serif" font-weight="700" font-size="46" transform="matrix(1 0 0 1 120.649 982)">Traffic<tspan font-size="46" x="26.9271" y="55">App</tspan></text><path d="M331 925.62C331 904.843 347.843 888 368.62 888L523.38 888C544.157 888 561 904.843 561 925.62L561 1059.38C561 1080.16 544.157 1097 523.38 1097L368.62 1097C347.843 1097 331 1080.16 331 1059.38Z" fill="#9E9EAD" fill-rule="evenodd"/><text fill="#FFFFFF" font-family="Libre Franklin Light,Libre Franklin Light_MSFontService,sans-serif" font-weight="700" font-size="46" transform="matrix(1 0 0 1 395.716 982)">Your<tspan font-size="46" x="6.875" y="55">App</tspan></text><path d="M586 917C586 900.984 598.984 888 615 888L647 888C663.016 888 676 900.984 676 917L676 1068C676 1084.02 663.016 1097 647 1097L615 1097C598.984 1097 586 1084.02 586 1068Z" fill="#9E9EAD" fill-rule="evenodd"/><text fill="#FFFFFF" font-family="Libre Franklin Light,Libre Franklin Light_MSFontService,sans-serif" font-weight="700" font-size="46" transform="matrix(1 0 0 1 615.093 1009)">…</text><path d="M3783 397.35C3783 367.886 3806.89 344 3836.35 344L4315.65 344C4345.11 344 4369 367.886 4369 397.35L4369 1340.65C4369 1370.11 4345.11 1394 4315.65 1394L3836.35 1394C3806.89 1394 3783 1370.11 3783 1340.65Z" fill="#D9D9D9" fill-rule="evenodd"/><path d="M3931 779.2C3931 750.371 3954.37 727 3983.2 727L4168.8 727C4197.63 727 4221 750.371 4221 779.2L4221 973.8C4221 1002.63 4197.63 1026 4168.8 1026L3983.2 1026C3954.37 1026 3931 1002.63 3931 973.8Z" fill="#FFFFFF" fill-rule="evenodd" fill-opacity="0.698039"/><text font-family="Libre Franklin Light,Libre Franklin Light_MSFontService,sans-serif" font-weight="700" font-size="46" transform="matrix(1 0 0 1 4059.44 893)">…</text><path d="M3972 1575 4024 1575 4024 1343 4128 1343 4128 1575 4180 1575 4076 1679Z" fill="#D9D9D9" fill-rule="evenodd"/></g></svg>